<svg xmlns="http://www.w3.org/2000/svg" width="48" height="48" viewBox="0 0 48 48" fill="none">
  <rect x="8" y="6" width="32" height="36" rx="4" fill="#f3f4f6" stroke="#6366f1" stroke-width="2"/>
  <rect x="14" y="10" width="20" height="6" rx="2" fill="#a5b4fc"/>
  <rect x="14" y="20" width="6" height="6" rx="1" fill="#fbbf24"/>
  <rect x="21" y="20" width="6" height="6" rx="1" fill="#f87171"/>
  <rect x="28" y="20" width="6" height="6" rx="1" fill="#34d399"/>
  <rect x="14" y="28" width="6" height="6" rx="1" fill="#60a5fa"/>
  <rect x="21" y="28" width="6" height="6" rx="1" fill="#f472b6"/>
  <rect x="28" y="28" width="6" height="6" rx="1" fill="#facc15"/>
  <rect x="14" y="36" width="20" height="2" rx="1" fill="#6366f1"/>
  <rect x="17" y="12" width="3" height="2" rx="1" fill="#fff"/>
  <rect x="22" y="12" width="3" height="2" rx="1" fill="#fff"/>
  <rect x="27" y="12" width="3" height="2" rx="1" fill="#fff"/>
</svg>
